<svg width="1200" height="800" version="1.1" xmlns:xlink="http://www.w3.org/1999/xlink" xmlns="http://www.w3.org/2000/svg">
  <g class="geojson-tiles">
    <image xlink:href="http://b.tile.openstreetmap.org/2/3/0.png" x="-168" y="-112" width="256px" height="256px"/>
    <image xlink:href="http://a.tile.openstreetmap.org/2/3/1.png" x="-168" y="144" width="256px" height="256px"/>
    <image xlink:href="http://b.tile.openstreetmap.org/2/3/2.png" x="-168" y="400" width="256px" height="256px"/>
    <image xlink:href="http://c.tile.openstreetmap.org/2/3/3.png" x="-168" y="656" width="256px" height="256px"/>
    <image xlink:href="http://a.tile.openstreetmap.org/2/0/0.png" x="88" y="-112" width="256px" height="256px"/>
    <image xlink:href="http://b.tile.openstreetmap.org/2/0/1.png" x="88" y="144" width="256px" height="256px"/>
    <image xlink:href="http://c.tile.openstreetmap.org/2/0/2.png" x="88" y="400" width="256px" height="256px"/>
    <image xlink:href="http://a.tile.openstreetmap.org/2/0/3.png" x="88" y="656" width="256px" height="256px"/>
    <image xlink:href="http://b.tile.openstreetmap.org/2/1/0.png" x="344" y="-112" width="256px" height="256px"/>
    <image xlink:href="http://c.tile.openstreetmap.org/2/1/1.png" x="344" y="144" width="256px" height="256px"/>
    <image xlink:href="http://a.tile.openstreetmap.org/2/1/2.png" x="344" y="400" width="256px" height="256px"/>
    <image xlink:href="http://b.tile.openstreetmap.org/2/1/3.png" x="344" y="656" width="256px" height="256px"/>
    <image xlink:href="http://c.tile.openstreetmap.org/2/2/0.png" x="600" y="-112" width="256px" height="256px"/>
    <image xlink:href="http://a.tile.openstreetmap.org/2/2/1.png" x="600" y="144" width="256px" height="256px"/>
    <image xlink:href="http://b.tile.openstreetmap.org/2/2/2.png" x="600" y="400" width="256px" height="256px"/>
    <image xlink:href="http://c.tile.openstreetmap.org/2/2/3.png" x="600" y="656" width="256px" height="256px"/>
    <image xlink:href="http://a.tile.openstreetmap.org/2/3/0.png" x="856" y="-112" width="256px" height="256px"/>
    <image xlink:href="http://b.tile.openstreetmap.org/2/3/1.png" x="856" y="144" width="256px" height="256px"/>
    <image xlink:href="http://c.tile.openstreetmap.org/2/3/2.png" x="856" y="400" width="256px" height="256px"/>
    <image xlink:href="http://a.tile.openstreetmap.org/2/3/3.png" x="856" y="656" width="256px" height="256px"/>
    <image xlink:href="http://b.tile.openstreetmap.org/2/0/0.png" x="1112" y="-112" width="256px" height="256px"/>
    <image xlink:href="http://c.tile.openstreetmap.org/2/0/1.png" x="1112" y="144" width="256px" height="256px"/>
    <image xlink:href="http://a.tile.openstreetmap.org/2/0/2.png" x="1112" y="400" width="256px" height="256px"/>
    <image xlink:href="http://b.tile.openstreetmap.org/2/0/3.png" x="1112" y="656" width="256px" height="256px"/>
  </g>
  <g class="geojson-features">
    <g class="geojson-feature" stroke="#555555" stroke-width="3" fill="#555555" fill-opacity="0.6" data-properties="{&quot;description&quot;:&quot;Line crossing most of the world, but not the antimeridian unless the implementation is taking liberties&quot;}">
      <desc>
      Line crossing most of the world, but not the antimeridian unless the implementation is taking liberties
    </desc>
      <polyline points="144.88888888888889,341.91933374607913 1055.1111111111113,185.36923224116083" fill="None"/>
    </g>
    <g class="geojson-feature" stroke="none" stroke-width="3" fill="blue" fill-opacity="0.6" data-properties="{&quot;stroke&quot;:&quot;none&quot;,&quot;fill&quot;:&quot;blue&quot;,&quot;description&quot;:&quot;Filled rectangle spanning most of the way around the world, but not crossing the antimeridian per the right-hand rule in https://tools.ietf.org/html/rfc7946#section-3.1.6&quot;}">
      <desc>
      Filled rectangle spanning most of the way around the world, but not crossing the antimeridian per the right-hand rule in https://tools.ietf.org/html/rfc7946#section-3.1.6
    </desc>
      <polygon points="1055.1111111111113,458.08066625392087 144.88888888888889,458.08066625392087 144.88888888888889,614.6307677588392 1055.1111111111113,614.6307677588392 1055.1111111111113,458.08066625392087"/>
    </g>
  </g>
</svg>
