<svg width="1200.0" height="800.0" version="1.1" xmlns:xlink="http://www.w3.org/1999/xlink" xmlns="http://www.w3.org/2000/svg">
  <g id="tiles">
    <image xlink:href="https://c.osm.rrze.fau.de/osmhd/2/3/0.png" x="-168.00000000000003" y="-112.0" width="256px" height="256px"/>
    <image xlink:href="https://c.osm.rrze.fau.de/osmhd/2/3/1.png" x="-168.00000000000003" y="144.0" width="256px" height="256px"/>
    <image xlink:href="https://c.osm.rrze.fau.de/osmhd/2/3/2.png" x="-168.00000000000003" y="400.0" width="256px" height="256px"/>
    <image xlink:href="https://c.osm.rrze.fau.de/osmhd/2/3/3.png" x="-168.00000000000003" y="656.0" width="256px" height="256px"/>
    <image xlink:href="https://c.osm.rrze.fau.de/osmhd/2/0/0.png" x="87.99999999999997" y="-112.0" width="256px" height="256px"/>
    <image xlink:href="https://c.osm.rrze.fau.de/osmhd/2/0/1.png" x="87.99999999999997" y="144.0" width="256px" height="256px"/>
    <image xlink:href="https://c.osm.rrze.fau.de/osmhd/2/0/2.png" x="87.99999999999997" y="400.0" width="256px" height="256px"/>
    <image xlink:href="https://c.osm.rrze.fau.de/osmhd/2/0/3.png" x="87.99999999999997" y="656.0" width="256px" height="256px"/>
    <image xlink:href="https://c.osm.rrze.fau.de/osmhd/2/1/0.png" x="344.0" y="-112.0" width="256px" height="256px"/>
    <image xlink:href="https://c.osm.rrze.fau.de/osmhd/2/1/1.png" x="344.0" y="144.0" width="256px" height="256px"/>
    <image xlink:href="https://c.osm.rrze.fau.de/osmhd/2/1/2.png" x="344.0" y="400.0" width="256px" height="256px"/>
    <image xlink:href="https://c.osm.rrze.fau.de/osmhd/2/1/3.png" x="344.0" y="656.0" width="256px" height="256px"/>
    <image xlink:href="https://c.osm.rrze.fau.de/osmhd/2/2/0.png" x="600.0" y="-112.0" width="256px" height="256px"/>
    <image xlink:href="https://c.osm.rrze.fau.de/osmhd/2/2/1.png" x="600.0" y="144.0" width="256px" height="256px"/>
    <image xlink:href="https://c.osm.rrze.fau.de/osmhd/2/2/2.png" x="600.0" y="400.0" width="256px" height="256px"/>
    <image xlink:href="https://c.osm.rrze.fau.de/osmhd/2/2/3.png" x="600.0" y="656.0" width="256px" height="256px"/>
    <image xlink:href="https://c.osm.rrze.fau.de/osmhd/2/3/0.png" x="856.0" y="-112.0" width="256px" height="256px"/>
    <image xlink:href="https://c.osm.rrze.fau.de/osmhd/2/3/1.png" x="856.0" y="144.0" width="256px" height="256px"/>
    <image xlink:href="https://c.osm.rrze.fau.de/osmhd/2/3/2.png" x="856.0" y="400.0" width="256px" height="256px"/>
    <image xlink:href="https://c.osm.rrze.fau.de/osmhd/2/3/3.png" x="856.0" y="656.0" width="256px" height="256px"/>
    <image xlink:href="https://c.osm.rrze.fau.de/osmhd/2/0/0.png" x="1112.0" y="-112.0" width="256px" height="256px"/>
    <image xlink:href="https://c.osm.rrze.fau.de/osmhd/2/0/1.png" x="1112.0" y="144.0" width="256px" height="256px"/>
    <image xlink:href="https://c.osm.rrze.fau.de/osmhd/2/0/2.png" x="1112.0" y="400.0" width="256px" height="256px"/>
    <image xlink:href="https://c.osm.rrze.fau.de/osmhd/2/0/3.png" x="1112.0" y="656.0" width="256px" height="256px"/>
  </g>
  <g id="features">
    <g fill-opacity="0.6" fill="#555555" stroke-width="3.0" stroke-opacity="1.0" stroke="#555555">
          <polyline points="144.88888888888886,341.91933374607913 1055.111111111111,185.36923224116083" fill="None"/>
        <title></title><desc>Line crossing most of the world, but not the antimeridian unless the implementation is taking liberties</desc></g>
    <polygon fill-opacity="0.6" fill="blue" stroke-width="3.0" stroke-opacity="1.0" stroke="none" points="1055.111111111111,458.08066625392087 144.88888888888886,458.08066625392087 144.88888888888886,614.6307677588392 1055.111111111111,614.6307677588392 1055.111111111111,458.08066625392087"><title></title><desc>Filled rectangle spanning most of the way around the world, but not crossing the antimeridian per the right-hand rule in https://tools.ietf.org/html/rfc7946#section-3.1.6</desc></polygon>
  </g>
</svg>