<svg width="1200" height="800" version="1.1" xmlns:xlink="http://www.w3.org/1999/xlink" xmlns="http://www.w3.org/2000/svg">
  <g id="tiles">
    <image xlink:href="https://c.osm.rrze.fau.de/osmhd/2/3/0.png" x="-168" y="-112" width="256px" height="256px"/>
    <image xlink:href="https://c.osm.rrze.fau.de/osmhd/2/3/1.png" x="-168" y="144" width="256px" height="256px"/>
    <image xlink:href="https://c.osm.rrze.fau.de/osmhd/2/3/2.png" x="-168" y="400" width="256px" height="256px"/>
    <image xlink:href="https://c.osm.rrze.fau.de/osmhd/2/3/3.png" x="-168" y="656" width="256px" height="256px"/>
    <image xlink:href="https://c.osm.rrze.fau.de/osmhd/2/0/0.png" x="88" y="-112" width="256px" height="256px"/>
    <image xlink:href="https://c.osm.rrze.fau.de/osmhd/2/0/1.png" x="88" y="144" width="256px" height="256px"/>
    <image xlink:href="https://c.osm.rrze.fau.de/osmhd/2/0/2.png" x="88" y="400" width="256px" height="256px"/>
    <image xlink:href="https://c.osm.rrze.fau.de/osmhd/2/0/3.png" x="88" y="656" width="256px" height="256px"/>
    <image xlink:href="https://c.osm.rrze.fau.de/osmhd/2/1/0.png" x="344" y="-112" width="256px" height="256px"/>
    <image xlink:href="https://c.osm.rrze.fau.de/osmhd/2/1/1.png" x="344" y="144" width="256px" height="256px"/>
    <image xlink:href="https://c.osm.rrze.fau.de/osmhd/2/1/2.png" x="344" y="400" width="256px" height="256px"/>
    <image xlink:href="https://c.osm.rrze.fau.de/osmhd/2/1/3.png" x="344" y="656" width="256px" height="256px"/>
    <image xlink:href="https://c.osm.rrze.fau.de/osmhd/2/2/0.png" x="600" y="-112" width="256px" height="256px"/>
    <image xlink:href="https://c.osm.rrze.fau.de/osmhd/2/2/1.png" x="600" y="144" width="256px" height="256px"/>
    <image xlink:href="https://c.osm.rrze.fau.de/osmhd/2/2/2.png" x="600" y="400" width="256px" height="256px"/>
    <image xlink:href="https://c.osm.rrze.fau.de/osmhd/2/2/3.png" x="600" y="656" width="256px" height="256px"/>
    <image xlink:href="https://c.osm.rrze.fau.de/osmhd/2/3/0.png" x="856" y="-112" width="256px" height="256px"/>
    <image xlink:href="https://c.osm.rrze.fau.de/osmhd/2/3/1.png" x="856" y="144" width="256px" height="256px"/>
    <image xlink:href="https://c.osm.rrze.fau.de/osmhd/2/3/2.png" x="856" y="400" width="256px" height="256px"/>
    <image xlink:href="https://c.osm.rrze.fau.de/osmhd/2/3/3.png" x="856" y="656" width="256px" height="256px"/>
    <image xlink:href="https://c.osm.rrze.fau.de/osmhd/2/0/0.png" x="1112" y="-112" width="256px" height="256px"/>
    <image xlink:href="https://c.osm.rrze.fau.de/osmhd/2/0/1.png" x="1112" y="144" width="256px" height="256px"/>
    <image xlink:href="https://c.osm.rrze.fau.de/osmhd/2/0/2.png" x="1112" y="400" width="256px" height="256px"/>
    <image xlink:href="https://c.osm.rrze.fau.de/osmhd/2/0/3.png" x="1112" y="656" width="256px" height="256px"/>
  </g>
  <g id="features">
    <g fill-opacity="0.6" fill="#555555" stroke-width="3.0" stroke-opacity="1.0" stroke="#555555"><desc>Line crossing most of the world, but not the antimeridian unless the implementation is taking liberties</desc>
          <polyline points="144.88888888888889,341.91933374607913 1055.1111111111113,185.36923224116083" fill="None"/>
        </g>
    <polygon fill-opacity="0.6" fill="blue" stroke-width="3.0" stroke-opacity="1.0" stroke="none" points="1055.1111111111113,458.08066625392087 144.88888888888889,458.08066625392087 144.88888888888889,614.6307677588392 1055.1111111111113,614.6307677588392 1055.1111111111113,458.08066625392087"><desc>Filled rectangle spanning most of the way around the world, but not crossing the antimeridian per the right-hand rule in https://tools.ietf.org/html/rfc7946#section-3.1.6</desc></polygon>
  </g>
</svg>
