<svg width="1200" height="800" version="1.1" xmlns:xlink="http://www.w3.org/1999/xlink" xmlns="http://www.w3.org/2000/svg">
  <g class="geojson-tiles">
    <image xlink:href="http://b.tile.openstreetmap.org/16/35202/21493.png" x="-64" y="-187" width="256px" height="256px"/>
    <image xlink:href="http://c.tile.openstreetmap.org/16/35202/21494.png" x="-64" y="69" width="256px" height="256px"/>
    <image xlink:href="http://a.tile.openstreetmap.org/16/35202/21495.png" x="-64" y="325" width="256px" height="256px"/>
    <image xlink:href="http://b.tile.openstreetmap.org/16/35202/21496.png" x="-64" y="581" width="256px" height="256px"/>
    <image xlink:href="http://c.tile.openstreetmap.org/16/35203/21493.png" x="192" y="-187" width="256px" height="256px"/>
    <image xlink:href="http://a.tile.openstreetmap.org/16/35203/21494.png" x="192" y="69" width="256px" height="256px"/>
    <image xlink:href="http://b.tile.openstreetmap.org/16/35203/21495.png" x="192" y="325" width="256px" height="256px"/>
    <image xlink:href="http://c.tile.openstreetmap.org/16/35203/21496.png" x="192" y="581" width="256px" height="256px"/>
    <image xlink:href="http://a.tile.openstreetmap.org/16/35204/21493.png" x="448" y="-187" width="256px" height="256px"/>
    <image xlink:href="http://b.tile.openstreetmap.org/16/35204/21494.png" x="448" y="69" width="256px" height="256px"/>
    <image xlink:href="http://c.tile.openstreetmap.org/16/35204/21495.png" x="448" y="325" width="256px" height="256px"/>
    <image xlink:href="http://a.tile.openstreetmap.org/16/35204/21496.png" x="448" y="581" width="256px" height="256px"/>
    <image xlink:href="http://b.tile.openstreetmap.org/16/35205/21493.png" x="704" y="-187" width="256px" height="256px"/>
    <image xlink:href="http://c.tile.openstreetmap.org/16/35205/21494.png" x="704" y="69" width="256px" height="256px"/>
    <image xlink:href="http://a.tile.openstreetmap.org/16/35205/21495.png" x="704" y="325" width="256px" height="256px"/>
    <image xlink:href="http://b.tile.openstreetmap.org/16/35205/21496.png" x="704" y="581" width="256px" height="256px"/>
    <image xlink:href="http://c.tile.openstreetmap.org/16/35206/21493.png" x="960" y="-187" width="256px" height="256px"/>
    <image xlink:href="http://a.tile.openstreetmap.org/16/35206/21494.png" x="960" y="69" width="256px" height="256px"/>
    <image xlink:href="http://b.tile.openstreetmap.org/16/35206/21495.png" x="960" y="325" width="256px" height="256px"/>
    <image xlink:href="http://c.tile.openstreetmap.org/16/35206/21496.png" x="960" y="581" width="256px" height="256px"/>
  </g>
  <g class="geojson-features">
    <g class="geojson-feature" stroke="green" stroke-width="3" fill="#555555" fill-opacity="0.6" data-properties="{&quot;source&quot;:&quot;handcrafted&quot;,&quot;id&quot;:42,&quot;title&quot;:&quot;Berlin Walk&quot;,&quot;description&quot;:&quot;Represents GPS data collected during a hypothetical walk through Berlin.&quot;,&quot;stroke&quot;:&quot;green&quot;}">
      <title>
      Berlin Walk
    </title>
      <desc>
      Represents GPS data collected during a hypothetical walk through Berlin.
    </desc>
      <polyline points="883.8508088905364,744.4575860798359 860.5491199996322,729.1440897034481 809.2854044456035,729.1440897034481 716.0786488894373,721.4873153837398 641.5132444445044,752.1143081365153 576.2685155551881,583.6623986084014 562.2875022236258,476.4613385098055 511.0237866677344,269.7067925045267 445.77905777841806,116.54708650894463 366.5533155556768,47.62294440995902 315.2895999997854,62.93954243697226" fill="None"/>
    </g>
  </g>
  <g class="geojson-selected-feature"></g>
</svg>
