<svg width="1200" height="800" version="1.1" xmlns:xlink="http://www.w3.org/1999/xlink" xmlns="http://www.w3.org/2000/svg">
  <g id="tiles">
    <image xlink:href="https://c.osm.rrze.fau.de/osmhd/6/29/29.png" x="-168" y="-139" width="256px" height="256px"/>
    <image xlink:href="https://c.osm.rrze.fau.de/osmhd/6/29/30.png" x="-168" y="117" width="256px" height="256px"/>
    <image xlink:href="https://c.osm.rrze.fau.de/osmhd/6/29/31.png" x="-168" y="373" width="256px" height="256px"/>
    <image xlink:href="https://c.osm.rrze.fau.de/osmhd/6/29/32.png" x="-168" y="629" width="256px" height="256px"/>
    <image xlink:href="https://c.osm.rrze.fau.de/osmhd/6/30/29.png" x="88" y="-139" width="256px" height="256px"/>
    <image xlink:href="https://c.osm.rrze.fau.de/osmhd/6/30/30.png" x="88" y="117" width="256px" height="256px"/>
    <image xlink:href="https://c.osm.rrze.fau.de/osmhd/6/30/31.png" x="88" y="373" width="256px" height="256px"/>
    <image xlink:href="https://c.osm.rrze.fau.de/osmhd/6/30/32.png" x="88" y="629" width="256px" height="256px"/>
    <image xlink:href="https://c.osm.rrze.fau.de/osmhd/6/31/29.png" x="344" y="-139" width="256px" height="256px"/>
    <image xlink:href="https://c.osm.rrze.fau.de/osmhd/6/31/30.png" x="344" y="117" width="256px" height="256px"/>
    <image xlink:href="https://c.osm.rrze.fau.de/osmhd/6/31/31.png" x="344" y="373" width="256px" height="256px"/>
    <image xlink:href="https://c.osm.rrze.fau.de/osmhd/6/31/32.png" x="344" y="629" width="256px" height="256px"/>
    <image xlink:href="https://c.osm.rrze.fau.de/osmhd/6/32/29.png" x="600" y="-139" width="256px" height="256px"/>
    <image xlink:href="https://c.osm.rrze.fau.de/osmhd/6/32/30.png" x="600" y="117" width="256px" height="256px"/>
    <image xlink:href="https://c.osm.rrze.fau.de/osmhd/6/32/31.png" x="600" y="373" width="256px" height="256px"/>
    <image xlink:href="https://c.osm.rrze.fau.de/osmhd/6/32/32.png" x="600" y="629" width="256px" height="256px"/>
    <image xlink:href="https://c.osm.rrze.fau.de/osmhd/6/33/29.png" x="856" y="-139" width="256px" height="256px"/>
    <image xlink:href="https://c.osm.rrze.fau.de/osmhd/6/33/30.png" x="856" y="117" width="256px" height="256px"/>
    <image xlink:href="https://c.osm.rrze.fau.de/osmhd/6/33/31.png" x="856" y="373" width="256px" height="256px"/>
    <image xlink:href="https://c.osm.rrze.fau.de/osmhd/6/33/32.png" x="856" y="629" width="256px" height="256px"/>
    <image xlink:href="https://c.osm.rrze.fau.de/osmhd/6/34/29.png" x="1112" y="-139" width="256px" height="256px"/>
    <image xlink:href="https://c.osm.rrze.fau.de/osmhd/6/34/30.png" x="1112" y="117" width="256px" height="256px"/>
    <image xlink:href="https://c.osm.rrze.fau.de/osmhd/6/34/31.png" x="1112" y="373" width="256px" height="256px"/>
    <image xlink:href="https://c.osm.rrze.fau.de/osmhd/6/34/32.png" x="1112" y="629" width="256px" height="256px"/>
  </g>
  <g id="features">
    <g fill-opacity="0.6" fill="#555555" stroke-width="10.0" stroke="blue">
      <polyline points="600.0,171.5605560715885 600.0,629.0 827.5555555555566,629.0" fill="None"/>
    </g>
    <g fill-opacity="0.6" fill="#555555" stroke-width="1.0" stroke="purple">
      <polyline points="372.44444444444434,171.5605560715885 372.44444444444434,217.70512215877443 417.9555555555562,217.70512215877443" fill="None"/>
      <polyline points="372.44444444444434,583.4865781333729 372.44444444444434,629.0 417.9555555555562,629.0" fill="None"/>
    </g>
    <circle fill-opacity="0.6" fill="red" stroke-width="0.5" stroke="green" cx="827.5555555555566" cy="401.15507090549636" r="3"/>
  </g>
</svg>
