<svg width="1200" height="800" version="1.1" xmlns:xlink="http://www.w3.org/1999/xlink" xmlns="http://www.w3.org/2000/svg">
  <g class="geojson-tiles">
    <image xlink:href="http://c.tile.openstreetmap.org/6/30/29.png" x="-26" y="-139" width="256px" height="256px"/>
    <image xlink:href="http://a.tile.openstreetmap.org/6/30/30.png" x="-26" y="117" width="256px" height="256px"/>
    <image xlink:href="http://b.tile.openstreetmap.org/6/30/31.png" x="-26" y="373" width="256px" height="256px"/>
    <image xlink:href="http://c.tile.openstreetmap.org/6/30/32.png" x="-26" y="629" width="256px" height="256px"/>
    <image xlink:href="http://a.tile.openstreetmap.org/6/31/29.png" x="230" y="-139" width="256px" height="256px"/>
    <image xlink:href="http://b.tile.openstreetmap.org/6/31/30.png" x="230" y="117" width="256px" height="256px"/>
    <image xlink:href="http://c.tile.openstreetmap.org/6/31/31.png" x="230" y="373" width="256px" height="256px"/>
    <image xlink:href="http://a.tile.openstreetmap.org/6/31/32.png" x="230" y="629" width="256px" height="256px"/>
    <image xlink:href="http://b.tile.openstreetmap.org/6/32/29.png" x="486" y="-139" width="256px" height="256px"/>
    <image xlink:href="http://c.tile.openstreetmap.org/6/32/30.png" x="486" y="117" width="256px" height="256px"/>
    <image xlink:href="http://a.tile.openstreetmap.org/6/32/31.png" x="486" y="373" width="256px" height="256px"/>
    <image xlink:href="http://b.tile.openstreetmap.org/6/32/32.png" x="486" y="629" width="256px" height="256px"/>
    <image xlink:href="http://c.tile.openstreetmap.org/6/33/29.png" x="742" y="-139" width="256px" height="256px"/>
    <image xlink:href="http://a.tile.openstreetmap.org/6/33/30.png" x="742" y="117" width="256px" height="256px"/>
    <image xlink:href="http://b.tile.openstreetmap.org/6/33/31.png" x="742" y="373" width="256px" height="256px"/>
    <image xlink:href="http://c.tile.openstreetmap.org/6/33/32.png" x="742" y="629" width="256px" height="256px"/>
    <image xlink:href="http://a.tile.openstreetmap.org/6/34/29.png" x="998" y="-139" width="256px" height="256px"/>
    <image xlink:href="http://b.tile.openstreetmap.org/6/34/30.png" x="998" y="117" width="256px" height="256px"/>
    <image xlink:href="http://c.tile.openstreetmap.org/6/34/31.png" x="998" y="373" width="256px" height="256px"/>
    <image xlink:href="http://a.tile.openstreetmap.org/6/34/32.png" x="998" y="629" width="256px" height="256px"/>
  </g>
  <g class="geojson-features">
    <g class="geojson-feature" stroke="#555555" stroke-width="3" fill="#555555" fill-opacity="0.6" data-properties="{}">
      <polyline points="486.0,171.5605560715885 486.0,629.0 713.5555555555566,629.0" fill="None"/>
    </g>
  </g>
  <g id="geojson-selected-feature"></g>
</svg>
